<?xml version="1.0" encoding="UTF-8" standalone="no"?>
<!-- Created with Inkscape (http://www.inkscape.org/) -->
<svg
   xmlns:dc="http://purl.org/dc/elements/1.1/"
   xmlns:cc="http://web.resource.org/cc/"
   xmlns:rdf="http://www.w3.org/1999/02/22-rdf-syntax-ns#"
   xmlns:svg="http://www.w3.org/2000/svg"
   xmlns="http://www.w3.org/2000/svg"
   xmlns:sodipodi="http://sodipodi.sourceforge.net/DTD/sodipodi-0.dtd"
   xmlns:inkscape="http://www.inkscape.org/namespaces/inkscape"
   width="64px"
   height="64px"
   id="svg2160"
   sodipodi:version="0.32"
   inkscape:version="0.45.1"
   sodipodi:docbase="/home/stuart/Desktop"
   sodipodi:docname="xkill_icon.svg"
   inkscape:output_extension="org.inkscape.output.svg.inkscape">
  <defs
     id="defs2162" />
  <sodipodi:namedview
     id="base"
     pagecolor="#ffffff"
     bordercolor="#666666"
     borderopacity="1.0"
     inkscape:pageopacity="0.0"
     inkscape:pageshadow="2"
     inkscape:zoom="7.7781746"
     inkscape:cx="52.053172"
     inkscape:cy="40.851074"
     inkscape:current-layer="layer1"
     showgrid="true"
     inkscape:document-units="px"
     inkscape:grid-bbox="true"
     inkscape:window-width="872"
     inkscape:window-height="627"
     inkscape:window-x="387"
     inkscape:window-y="363" />
  <metadata
     id="metadata2165">
    <rdf:RDF>
      <cc:Work
         rdf:about="">
        <dc:format>image/svg+xml</dc:format>
        <dc:type
           rdf:resource="http://purl.org/dc/dcmitype/StillImage" />
      </cc:Work>
    </rdf:RDF>
  </metadata>
  <g
     id="layer1"
     inkscape:label="Layer 1"
     inkscape:groupmode="layer">
    <path
       style="fill:#000000;stroke:#dfdfdf;stroke-opacity:1;fill-opacity:1;stroke-width:0.5;stroke-miterlimit:4;stroke-dasharray:none;stroke-linecap:round;stroke-linejoin:miter"
       d="M 13.844988,63.93698 C 13.068306,63.7763 12.840358,63.008878 13.153576,61.609261 C 13.47273,60.183131 13.360172,60.050045 11.830696,60.045146 C 9.3082649,60.03707 7.7203645,58.221784 8.1645602,55.854016 C 8.3654215,54.783344 9.6311854,53.536263 10.72538,53.33099 C 11.833958,53.123015 13.885307,53.822843 16.196428,55.19745 L 17.941428,56.235349 L 26.006643,53.0148 C 34.599816,49.583428 46.633462,44.534625 48.818676,43.443842 C 49.545495,43.081038 50.463378,42.426446 50.858413,41.989193 C 51.550187,41.223476 51.581001,41.115266 51.694662,39.05259 C 51.823883,36.707509 52.078084,35.968384 52.986671,35.295883 C 53.456424,34.948194 53.872339,34.85753 54.899858,34.878825 C 57.737635,34.937629 59.84987,36.742644 59.412292,38.734926 C 59.341213,39.058536 58.759656,39.910891 58.119942,40.629049 C 56.956076,41.935632 56.733579,42.514943 57.211915,42.993283 C 57.666176,43.44754 58.015998,43.266241 58.364147,42.396129 C 58.975491,40.868226 60.494435,41.053501 61.243713,42.747368 C 62.054806,44.580976 61.332136,46.352692 59.389558,47.293075 C 57.518883,48.198654 55.353007,47.47492 53.985484,45.487293 C 53.620901,44.957387 53.222732,44.523831 53.100669,44.523831 C 52.978605,44.523831 51.715715,45.083627 50.294248,45.767822 C 47.016311,47.345587 42.908427,48.993133 37.506101,50.896749 C 31.440726,53.034 29.576346,53.770829 26.452141,55.265437 C 24.932218,55.992557 23.449504,56.659749 23.157211,56.748087 C 22.003642,57.096711 20.209124,58.14037 19.678077,58.771479 C 19.210213,59.327505 19.11826,59.645185 19.11826,60.705594 C 19.11826,61.77815 19.035425,62.057236 18.582715,62.50995 C 17.583873,63.508788 15.218734,64.221185 13.844988,63.93698 z M 46.64688,63.344622 C 46.179213,63.168476 45.775116,63.022921 45.748888,63.021158 C 45.454238,63.00138 45.049177,61.380978 44.844734,59.404165 C 44.699846,58.003186 44.472847,56.83614 44.313024,56.670496 C 44.159635,56.511522 43.442399,56.244747 42.71916,56.077663 C 41.995927,55.91058 41.015621,55.528588 40.540715,55.228789 C 40.065806,54.92899 38.817074,54.265051 37.765758,53.753365 C 36.328171,53.053675 35.953633,52.789972 36.255035,52.689716 C 36.475454,52.616396 37.293641,52.315424 38.073226,52.020891 L 39.490652,51.485377 L 41.316587,52.480694 C 43.418075,53.626217 45.243096,54.302333 46.233674,54.302333 C 46.612843,54.302333 47.790003,53.967528 48.849585,53.558317 C 49.909161,53.14911 51.022023,52.8143 51.322606,52.8143 C 52.095772,52.8143 53.748195,53.707656 54.582121,54.576506 C 55.429203,55.459059 55.722509,56.803202 55.168366,57.2631 C 54.874354,57.507107 54.561206,57.44748 53.032118,56.856323 C 51.826597,56.39026 51.06273,56.208216 50.697388,56.299914 C 49.915056,56.496264 50.029382,56.778703 50.951547,56.927787 C 52.780174,57.223415 54.136465,58.873209 53.914059,60.531384 C 53.658608,62.435918 52.127668,63.455921 49.335469,63.581924 C 48.040615,63.640357 47.245818,63.570207 46.64688,63.344622 z M 27.089868,49.838194 C 25.267036,49.361965 22.75108,48.433496 20.532794,47.418417 C 18.735914,46.596173 15.732218,45.586709 15.082464,45.586709 C 14.862436,45.586709 14.208417,45.881362 13.629093,46.241491 C 10.874737,47.953691 8.2370279,46.826132 7.640675,43.681585 C 7.366329,42.234961 7.5377344,41.294118 8.2072403,40.571715 C 8.726377,40.011552 8.7474909,40.008183 10.819975,40.155117 C 12.124114,40.247575 12.957846,40.224759 13.038411,40.094405 C 13.109401,39.979542 12.975552,39.437813 12.740973,38.890561 C 12.506399,38.343312 12.364419,37.814734 12.425473,37.715952 C 12.628173,37.387977 14.870244,36.658491 15.671871,36.659697 C 17.596351,36.662589 18.905683,37.53913 18.905683,38.82459 C 18.905683,39.165984 18.618707,40.119694 18.267955,40.943947 C 17.917208,41.7682 17.630228,42.580625 17.630228,42.749341 C 17.630228,43.186078 18.62742,44.055725 19.826486,44.664686 C 20.659279,45.08763 24.42933,46.424246 30.969383,48.615239 C 31.349363,48.742534 31.660257,48.913284 31.660257,48.994684 C 31.660257,49.076084 31.296393,49.394842 30.851672,49.703035 C 29.898715,50.363432 29.196823,50.388652 27.089868,49.838194 z M 38.155958,44.107626 C 37.37071,43.52797 36.537672,42.993223 36.304769,42.919298 C 35.781655,42.753271 35.197061,43.24848 34.831637,44.167188 C 34.683858,44.538718 34.530903,44.883274 34.491739,44.932874 C 34.452575,44.982474 33.915379,44.480263 33.297969,43.81685 C 32.680554,43.153438 32.068585,42.610645 31.938029,42.610645 C 31.807476,42.610645 31.445276,43.046416 31.133149,43.579022 C 30.504935,44.650984 29.831419,45.069598 29.050333,44.873553 C 28.555196,44.749284 28.10259,44.195434 26.897095,42.238637 C 26.337329,41.33001 25.691186,41.062943 25.354176,41.600909 C 25.262619,41.747052 25.137401,42.297096 25.075908,42.823222 L 24.964104,43.779815 L 23.847059,43.8441 C 22.811457,43.903701 22.714583,43.867821 22.518457,43.351967 C 22.402103,43.045934 22.306906,42.29062 22.306906,41.673493 C 22.306906,41.056363 22.112042,39.986423 21.873879,39.295846 C 20.981291,36.707733 21.122697,34.46543 22.195468,34.196181 C 22.455331,34.130961 23.208495,34.218756 23.869168,34.391281 C 25.057983,34.701724 25.070397,34.700172 25.070397,34.241003 C 25.070397,33.322281 23.551018,31.556684 22.760413,31.556684 C 22.469008,31.556684 21.630281,31.759455 20.896577,32.007288 C 19.130338,32.603894 18.385512,32.449884 16.996254,31.200826 C 15.727995,30.060551 14.947348,28.652769 14.747375,27.145286 C 14.53057,25.510931 14.909774,24.708593 16.860698,22.673834 L 18.586821,20.873538 L 18.530413,18.746205 L 18.474004,16.618873 L 19.540148,15.237837 C 20.803715,13.601072 20.890398,12.962073 19.986137,11.950029 C 19.256292,11.133196 18.945196,11.26096 19.42145,12.181936 C 19.891271,13.090463 19.858881,13.232033 18.928891,14.334946 C 17.680806,15.8151 17.205798,16.837164 17.200002,18.054948 C 17.194112,19.29351 16.908833,20.671418 16.592881,20.987367 C 16.170514,21.409733 15.770084,20.720682 15.173249,18.5445 C 14.640979,16.603719 14.603732,16.255452 14.804451,15.096133 C 15.321761,12.108279 17.094704,8.6152589 19.31155,6.2163125 C 23.252761,1.9513668 29.053362,0.033910078 36.974663,0.37756531 C 43.446932,0.65835732 46.98923,1.8885253 50.017488,4.9070712 C 51.519981,6.4047425 53.248647,9.1768296 54.231274,11.664295 C 54.816407,13.145527 54.921958,13.710209 54.999619,15.774816 L 55.089646,18.168217 L 54.322624,19.017216 C 53.359451,20.083339 53.344943,20.61872 54.203878,23.399499 C 55.123884,26.377993 55.086763,27.151306 53.91025,29.516332 C 53.381086,30.580067 52.609312,31.777341 52.195201,32.176943 C 51.465819,32.880774 51.372134,32.908502 49.199277,33.06359 C 46.68806,33.242828 45.893354,33.567386 45.106425,34.735109 C 44.321474,35.899897 44.425957,36.02078 46.217675,36.02078 C 47.737792,36.02078 47.813849,36.04429 47.941682,36.55362 C 48.307252,38.010183 47.20175,40.408652 45.205596,42.489766 C 43.765496,43.991151 43.763419,43.992349 42.685874,43.946602 C 42.092736,43.92142 41.437186,43.84678 41.229098,43.780737 C 40.929525,43.685656 40.821452,43.816889 40.70998,44.411109 C 40.510963,45.471944 39.906926,45.40017 38.155958,44.107626 z M 33.557092,31.327754 C 34.151272,30.733569 34.211171,30.549034 34.211171,29.312584 C 34.211171,28.55808 34.363484,27.570816 34.552943,27.097318 C 35.110115,25.704808 34.544834,25.101991 33.612496,26.094418 C 33.031173,26.713207 32.113941,28.950853 31.949331,30.15181 C 31.814177,31.137868 32.117927,31.981834 32.607978,31.981834 C 32.770244,31.981834 33.197347,31.687499 33.557092,31.327754 z M 39.753313,31.528352 C 40.088354,30.902324 39.845765,29.6109 39.099328,28.046884 C 38.360129,26.498027 37.584132,25.604547 36.97814,25.604547 C 36.310892,25.604547 36.222852,26.181841 36.730686,27.227117 C 37.036716,27.85702 37.187236,28.572071 37.187236,29.395979 C 37.187236,30.674622 37.362084,31.044471 38.244275,31.631871 C 38.956939,32.106397 39.462515,32.071715 39.753313,31.528352 z M 33.254578,24.413737 C 34.004157,24.023701 34.112401,23.871181 34.168349,23.126209 C 34.203256,22.661412 34.035871,21.383345 33.796388,20.286066 C 33.437622,18.642252 33.23932,18.165188 32.67004,17.576333 C 31.107347,15.959915 28.173601,14.853936 25.88723,15.019322 C 24.351011,15.13044 22.753428,16.160229 21.697621,17.71991 C 20.428057,19.595372 20.608778,21.19339 22.309504,23.130405 C 23.59434,24.593756 25.042841,24.959141 29.321916,24.899294 C 31.977468,24.862155 32.52201,24.794923 33.254578,24.413737 z M 48.256053,24.18208 C 49.980379,23.413619 51.64242,21.295581 51.64242,19.866633 C 51.64242,17.493459 48.630858,14.770337 46.000669,14.76524 C 43.692886,14.760767 40.582474,16.031841 39.225395,17.533963 C 38.684493,18.132677 38.420002,18.713569 38.15093,19.893749 C 37.528073,22.625682 37.503809,23.315957 38.01441,23.777336 C 38.859634,24.541083 40.257868,24.75703 43.883389,24.683756 C 46.746968,24.625879 47.438165,24.546577 48.256053,24.18208 z "
       id="path2543" />
  </g>
</svg>
